<svg width="512" height="512" xmlns="http://www.w3.org/2000/svg">
 <!-- Created with Method Draw - http://github.com/duopixel/Method-Draw/ -->

 <g>
  <title>background</title>
  <rect fill="transparent" id="canvas_background" height="514" width="514" y="-1" x="-1"/>
  <g display="none" overflow="visible" y="0" x="0" height="100%" width="100%" id="canvasGrid">
   <rect fill="url(#gridpattern)" stroke-width="0" y="0" x="0" height="100%" width="100%"/>
  </g>
 </g>
 <g>
  <title>Layer 1</title>
  <metadata transform="matrix(0.033327559412482666,0,0,0.033327559412482666,0,0) " id="svg_26">image/svg+xml</metadata>
  <defs>
   <clipPath clipPathUnits="userSpaceOnUse" id="svg_23">
    <path d="m1147.209885,44838.004687l0,-4105.95l5477.71,0l0,4105.95l-5477.71,0z" id="svg_25"/>
   </clipPath>
  </defs>
  <g stroke="null" id="svg_34">
   <g stroke="null" transform="matrix(1.923163210739481,0,0,2.4568060519758554,-29.589731695759838,-42.001943614495296) " id="svg_32" fill="#c76494">
    <path stroke="null" id="svg_33" d="m240.851186,137.400928c-8.90638,0.04663 -16.647,2.19162 -23.1286,5.36248c-2.37814,-4.70966 -4.75628,-8.90638 -5.17595,-11.98397c-0.46631,-3.59053 -1.02587,-5.78215 -0.46631,-10.07213c0.55956,-4.28999 3.0776,-10.39855 3.03097,-10.86485c-0.04663,-0.4663 -0.55956,-2.65792 -5.68889,-2.70455c-5.12933,-0.04663 -9.5592,0.97923 -10.07213,2.33151c-0.51294,1.35228 -1.49217,4.42987 -2.14499,7.60073c-0.88598,4.66302 -10.25865,21.31002 -15.62113,30.02987c-1.72532,-3.40401 -3.21749,-6.38834 -3.5439,-8.76648c-0.4663,-3.59053 -1.02587,-5.78215 -0.4663,-10.07214c0.55956,-4.28998 3.07759,-10.39854 3.03096,-10.86484c-0.04663,-0.4663 -0.55956,-2.65792 -5.68889,-2.70455c-5.12932,-0.04663 -9.55919,0.97923 -10.07213,2.33151c-0.51293,1.35227 -1.07249,4.52313 -2.14499,7.60073c-1.07249,3.07759 -13.52277,30.86921 -16.78688,38.05027c-1.67869,3.68379 -3.12423,6.62149 -4.15009,8.62659l0,0c0,0 -0.04664,0.13989 -0.18653,0.37305c-0.88597,1.72531 -1.3989,2.65792 -1.3989,2.65792c0,0 0,0 0,0.04663c-0.69946,1.25901 -1.44554,2.42477 -1.81858,2.42477c-0.27978,0 -0.79272,-3.35738 0.09326,-7.92714c1.86521,-9.65246 6.29508,-24.66739 6.24845,-25.18033c0,-0.27978 0.83935,-2.89107 -2.89107,-4.24335c-3.63716,-1.35227 -4.94281,0.88598 -5.26922,0.88598c-0.32641,0 -0.55956,0.79271 -0.55956,0.79271c0,0 4.05683,-16.88015 -7.74062,-16.88015c-7.36758,0 -17.53297,8.06704 -22.56904,15.34135c-3.17085,1.72532 -9.93224,5.40911 -17.15993,9.37268c-2.75118,1.5388 -5.59562,3.0776 -8.25355,4.52313c-0.18652,-0.18652 -0.37304,-0.41967 -0.55956,-0.60619c-14.26885,-15.24809 -40.66157,-26.01967 -39.54244,-46.49035c0.41967,-7.46083 2.98433,-27.04553 50.68707,-50.82695c39.26266,-19.35155 70.50491,-13.98908 75.91402,-2.09836c7.74062,16.9734 -16.74025,48.49544 -57.30856,53.0652c-15.48124,1.72532 -23.5949,-4.24335 -25.64663,-6.4816c-2.14499,-2.33151 -2.4714,-2.4714 -3.26412,-2.0051c-1.30564,0.69945 -0.4663,2.79782 0,4.0102c1.21239,3.17086 6.20183,8.76649 14.6419,11.51767c7.46084,2.42477 25.6,3.77705 47.56284,-4.70965c24.57413,-9.51257 43.78579,-35.95192 38.14353,-58.10128c-5.64226,-22.47577 -42.94644,-29.88998 -78.24553,-17.34645c-20.98361,7.46084 -43.73917,19.21166 -60.10638,34.50638c-19.44481,18.18579 -22.5224,33.99344 -21.26339,40.61493c4.52314,23.50164 36.93115,38.79636 49.89436,50.12751c-0.65283,0.37304 -1.25902,0.69945 -1.77195,0.97923c-6.48161,3.21749 -31.19563,16.13407 -37.35082,29.79673c-6.99454,15.48123 1.11912,26.57923 6.4816,28.0714c16.647,4.61639 33.76029,-3.68379 42.94645,-17.39308c9.18616,-13.70929 8.06703,-31.52204 3.82368,-39.68233c-0.04663,-0.09326 -0.09326,-0.18652 -0.18652,-0.27978c1.67869,-0.97924 3.404,-2.0051 5.08269,-2.98434c3.31075,-1.95847 6.57487,-3.77705 9.37268,-5.26922c-1.58543,4.33662 -2.75118,9.51257 -3.31075,16.97341c-0.69945,8.76649 2.89108,20.14426 7.60073,24.62077c2.09836,1.95847 4.56977,2.0051 6.15519,2.0051c5.50237,0 7.97377,-4.56977 10.72496,-9.97887c3.35738,-6.6215 6.38834,-14.31549 6.38834,-14.31549c0,0 -3.77705,20.79709 6.4816,20.79709c3.73042,0 7.50747,-4.84955 9.18616,-7.32095l0,0.04663c0,0 0.09326,-0.13989 0.27978,-0.4663c0.37304,-0.60619 0.6062,-0.97924 0.6062,-0.97924l0,-0.09326c1.49216,-2.61129 4.84954,-8.53333 9.83897,-18.37231c6.43498,-12.68342 12.6368,-28.5377 12.6368,-28.5377c0,0 0.55956,3.8703 2.4714,10.30528c1.11913,3.77705 3.45064,7.92714 5.31585,11.93734c-1.49217,2.09836 -2.42477,3.26411 -2.42477,3.26411c0,0 0,0 0.04663,0.04663c-1.21239,1.58543 -2.51804,3.31075 -3.96357,4.98944c-5.0827,6.06193 -11.14463,13.00984 -11.98397,15.01494c-0.97924,2.37814 -0.74609,4.10346 1.11912,5.50236c1.35228,1.02587 3.77705,1.16576 6.24845,1.02587c4.56977,-0.32641 7.78725,-1.44554 9.37268,-2.14499c2.4714,-0.88597 5.36248,-2.23825 8.06703,-4.24335c4.98944,-3.68379 8.0204,-8.95301 7.74062,-15.90091c-0.13989,-3.82368 -1.39891,-7.64736 -2.9377,-11.23789c0.4663,-0.65282 0.88597,-1.30565 1.35227,-1.95847c7.88051,-11.51767 13.98907,-24.15446 13.98907,-24.15446c0,0 0.55957,3.87031 2.47141,10.30528c0.9326,3.26412 2.84444,6.80801 4.52313,10.25865c-7.41421,6.0153 -11.98397,13.00984 -13.61603,17.5796c-2.93771,8.4867 -0.65282,12.31038 3.68379,13.19636c1.95847,0.41967 4.75628,-0.51294 6.80801,-1.39891c2.6113,-0.83934 5.68889,-2.28488 8.6266,-4.42987c4.98943,-3.68379 9.79235,-8.81312 9.51257,-15.76102c-0.1399,-3.17086 -0.97924,-6.29508 -2.145,-9.32605c6.29509,-2.61129 14.40875,-4.05683 24.76066,-2.84444c22.19599,2.61129 26.57924,16.46047 25.73989,22.28925c-0.83934,5.82878 -5.50237,8.99963 -7.04116,9.97887c-1.5388,0.97923 -2.05173,1.30565 -1.91184,2.0051c0.18652,1.02587 0.9326,0.97923 2.23825,0.79271c1.81858,-0.32641 11.65756,-4.70965 12.07723,-15.4346c0.69945,-13.70929 -12.35701,-28.6776 -35.43898,-28.53771l0,0zm-171.22623,57.72823c-7.36758,8.0204 -17.62623,11.05137 -22.0561,8.48671c-4.75629,-2.75119 -2.89108,-14.59527 6.15519,-23.08197c5.50237,-5.17596 12.59016,-9.97887 17.29982,-12.91658c1.07249,-0.65282 2.65792,-1.58542 4.56976,-2.75118c0.32641,-0.18652 0.51293,-0.27978 0.51293,-0.27978l0,0c0.37304,-0.23315 0.74609,-0.4663 1.11913,-0.69945c3.31074,12.12386 0.13989,22.80218 -7.60073,31.24225l0,0zm53.62477,-36.46484c-2.56466,6.24845 -7.92714,22.24262 -11.19126,21.35665c-2.79781,-0.74609 -4.52313,-12.86995 -0.55956,-24.85392c2.0051,-6.0153 6.24845,-13.19636 8.71986,-15.99417c4.0102,-4.4765 8.44007,-5.96867 9.51256,-4.15009c1.35228,2.37814 -4.89617,19.72459 -6.4816,23.64153l0,0zm44.2521,21.17013c-1.0725,0.55956 -2.09836,0.9326 -2.56467,0.65282c-0.32641,-0.18652 0.46631,-0.93261 0.46631,-0.93261c0,0 5.54899,-5.96867 7.74062,-8.67322c1.25901,-1.58543 2.75118,-3.45064 4.33661,-5.549l0,0.6062c0,7.13442 -6.90128,11.93734 -9.97887,13.89581l0,0zm34.13333,-7.78725c-0.79272,-0.55957 -0.65282,-2.42478 2.0051,-8.25356c1.02586,-2.28488 3.45064,-6.10856 7.60073,-9.79234c0.4663,1.49216 0.79271,2.9377 0.74608,4.28998c-0.04663,8.99963 -6.4816,12.35701 -10.35191,13.75592l0,0z"/>
   </g>
  </g>
 </g>
</svg>